<svg id="visual" viewBox="0 0 960 540" width="960" height="540" xmlns="http://www.w3.org/2000/svg" xmlns:xlink="http://www.w3.org/1999/xlink" version="1.1"><rect x="0" y="0" width="960" height="540" fill="#ccd3d9"></rect><path d="M0 402L22.8 407.2C45.7 412.3 91.3 422.7 137 426.2C182.7 429.7 228.3 426.3 274 413.8C319.7 401.3 365.3 379.7 411.2 369C457 358.3 503 358.7 548.8 371.3C594.7 384 640.3 409 686 417.3C731.7 425.7 777.3 417.3 823 411C868.7 404.7 914.3 400.3 937.2 398.2L960 396L960 541L937.2 541C914.3 541 868.7 541 823 541C777.3 541 731.7 541 686 541C640.3 541 594.7 541 548.8 541C503 541 457 541 411.2 541C365.3 541 319.7 541 274 541C228.3 541 182.7 541 137 541C91.3 541 45.7 541 22.8 541L0 541Z" fill="#0066FF" stroke-linecap="round" stroke-linejoin="miter"></path></svg>